<?xml version="1.0" standalone="no"?>
<!DOCTYPE svg PUBLIC "-//W3C//DTD SVG 20010904//EN"
 "http://www.w3.org/TR/2001/REC-SVG-20010904/DTD/svg10.dtd">
<svg version="1.0" xmlns="http://www.w3.org/2000/svg"
 width="96.000000pt" height="96.000000pt" viewBox="0 0 96.000000 96.000000"
 preserveAspectRatio="xMidYMid meet">

<g transform="translate(0.000000,96.000000) scale(0.100000,-0.100000)"
fill="#000000" stroke="none">
<path d="M400 856 c-199 -43 -336 -241 -302 -435 46 -262 324 -403 558 -285
146 74 235 251 204 407 -32 164 -154 286 -315 316 -69 13 -74 13 -145 -3z
m107 -48 c7 -14 14 -36 15 -49 3 -21 -2 -24 -36 -27 -50 -4 -59 6 -45 49 22
65 44 74 66 27z m-77 20 c0 -2 -7 -21 -14 -43 -13 -37 -17 -40 -47 -37 -41 3
-45 7 -28 28 21 26 90 65 89 52z m138 -12 c30 -15 68 -54 61 -61 -3 -2 -20 -6
-38 -7 -30 -3 -34 0 -47 37 -7 22 -14 41 -14 43 0 5 12 1 38 -12z m-250 -26
c-13 -21 -28 -27 -28 -10 0 5 8 14 18 19 23 14 24 14 10 -9z m352 -10 c0 -17
-15 -11 -28 11 -12 19 -11 19 8 9 11 -6 20 -15 20 -20z m-394 -31 c9 -15 -13
-34 -55 -48 l-34 -11 19 22 c39 47 57 57 70 37z m445 -1 c8 -7 23 -23 33 -36
l19 -22 -34 11 c-42 14 -64 33 -55 48 9 14 19 14 37 -1z m-187 -47 c4 -5 9
-30 13 -56 7 -56 -2 -65 -67 -65 -65 0 -74 9 -67 65 4 26 9 51 13 56 7 12 101
12 108 0z m-148 -53 c-4 -29 -9 -54 -11 -57 -2 -2 -29 0 -60 4 -60 7 -67 18
-44 69 12 26 29 32 88 35 l34 1 -7 -52z m262 46 c30 -6 52 -37 52 -74 0 -15
-10 -20 -55 -25 -31 -4 -58 -6 -60 -4 -2 3 -7 28 -11 57 -6 51 -6 52 18 52 14
0 39 -3 56 -6z m-409 -44 c-12 -32 -30 -38 -48 -16 -12 14 -2 27 29 39 27 10
29 7 19 -23z m529 7 c9 -7 9 -13 1 -23 -18 -22 -36 -16 -48 17 -10 28 -9 30
12 23 12 -3 28 -11 35 -17z m-551 -85 c-2 -12 -66 -41 -90 -42 -9 0 -4 24 14
72 l11 26 34 -21 c18 -12 32 -28 31 -35z m617 -14 c7 -32 5 -33 -49 -14 -50
18 -54 35 -12 62 l32 20 11 -20 c6 -12 14 -33 18 -48z m-286 -10 c18 -18 15
-113 -4 -132 -21 -21 -107 -21 -128 0 -19 19 -22 114 -4 132 7 7 37 12 68 12
31 0 61 -5 68 -12z m-168 -68 c0 -79 3 -77 -94 -64 l-46 7 0 58 c0 64 -2 63
103 67 l37 2 0 -70z m294 64 l46 -7 0 -57 0 -57 -46 -7 c-97 -13 -94 -15 -94
64 0 79 -3 77 94 64z m-466 -89 l-3 -24 -42 19 c-24 10 -43 24 -43 30 0 6 19
20 43 30 l42 19 3 -24 c2 -14 2 -36 0 -50z m627 34 c12 -12 -1 -24 -47 -44
l-38 -15 0 50 0 50 38 -15 c20 -9 41 -20 47 -26z m-662 -75 c26 -9 47 -21 47
-27 -1 -7 -16 -22 -35 -34 l-33 -21 -11 26 c-14 39 -23 72 -18 72 2 0 24 -7
50 -16z m662 -6 c-3 -13 -11 -35 -16 -50 l-11 -26 -33 21 c-44 28 -43 41 3 60
54 22 64 21 57 -5z m-296 -37 c10 -7 12 -21 8 -56 -4 -26 -9 -51 -13 -56 -7
-12 -101 -12 -108 0 -4 5 -9 30 -13 56 -7 56 2 65 67 65 25 0 51 -4 59 -9z
m-155 -38 c10 -64 8 -73 -18 -73 -58 0 -85 12 -95 43 -17 47 -14 55 22 60 83
10 84 10 91 -30z m315 21 c2 -2 -1 -21 -7 -43 -10 -31 -18 -40 -43 -45 -80
-16 -85 -11 -72 67 l6 39 56 -7 c31 -4 58 -9 60 -11z m-460 -45 c10 -28 9 -30
-12 -23 -37 11 -49 25 -36 40 18 22 36 16 48 -17z m530 17 c13 -15 1 -29 -36
-40 -21 -7 -22 -5 -12 23 12 33 30 39 48 17z m-499 -92 c11 -11 12 -16 2 -26
-10 -10 -20 -4 -50 25 l-37 38 35 -12 c19 -6 42 -18 50 -25z m468 -1 c-30 -29
-40 -35 -50 -25 -9 9 -9 15 0 25 11 10 63 33 82 36 2 1 -12 -16 -32 -36z
m-219 -12 c11 -7 9 -17 -7 -55 -12 -25 -26 -46 -32 -46 -6 0 -20 21 -32 46
-22 51 -16 64 32 64 14 0 31 -4 39 -9z m-106 -46 c9 -25 12 -45 8 -45 -13 0
-91 59 -91 69 0 9 20 15 57 20 6 0 18 -19 26 -44z m205 35 c23 0 12 -20 -30
-50 -22 -16 -45 -30 -49 -30 -4 0 -1 21 8 46 13 39 19 45 37 40 11 -3 27 -6
34 -6z m-302 -47 c-7 -7 -26 7 -26 19 0 6 6 6 15 -2 9 -7 13 -15 11 -17z m349
8 c-3 -6 -11 -11 -17 -11 -6 0 -6 6 2 15 14 17 26 13 15 -4z"/>
</g>
</svg>
